<?xml version="1.0" encoding="utf-8"?>
<!-- Generator: Adobe Illustrator 16.0.0, SVG Export Plug-In . SVG Version: 6.00 Build 0)  -->
<!DOCTYPE svg PUBLIC "-//W3C//DTD SVG 1.1//EN" "http://www.w3.org/Graphics/SVG/1.1/DTD/svg11.dtd">
<svg version="1.1" id="Layer_1" xmlns="http://www.w3.org/2000/svg" xmlns:xlink="http://www.w3.org/1999/xlink" x="0px" y="0px"
	 width="216.5px" height="148px" viewBox="0 0 216.5 148" enable-background="new 0 0 216.5 148" xml:space="preserve">
<g id="XMLID_1_">
	<g>
		<path fill="#A59F9F" d="M200.5,30.498v63h-187v-63H200.5z M193.5,87.667v-46.17h-68h-51h-54v46.5l105-0.2L193.5,87.667z"/>
		<path fill="#5B5757" d="M193.5,41.498v46.17l-68,0.13v-0.3v-5v-3v-14v-3v-5v-3v-6v-2v-5H193.5z M187.42,83.998v-20h-25v20H187.42z
			 M158.12,83.998v-20h-25v20H158.12z"/>
		<path fill="#A59F9F" d="M187.42,63.998v20h-25v-20H187.42z M183.92,81.517v-14h-18v14H183.92z"/>
		<rect x="165.92" y="67.517" fill="#C61E1E" width="18" height="14"/>
		<path fill="#A59F9F" d="M158.12,63.998v20h-25v-20H158.12z M154.62,81.517v-14h-18v14H154.62z"/>
		<rect x="136.62" y="67.517" fill="#C61E1E" width="18" height="14"/>
		<polygon fill="#5B5757" points="125.5,87.498 125.5,87.797 20.5,87.998 20.5,41.498 74.5,41.498 74.5,46.498 125.5,46.498 
			125.5,48.498 74.5,48.498 74.5,54.498 125.5,54.498 125.5,57.498 74.5,57.498 74.5,62.498 125.5,62.498 125.5,65.498 74.5,65.498 
			74.5,79.498 125.5,79.498 125.5,82.498 74.5,82.498 74.5,87.498 		"/>
		<rect x="74.5" y="82.498" fill="#827C7C" width="51" height="5"/>
		<path fill="#A59F9F" d="M125.5,65.498v14h-51v-14H125.5z M119.24,75.498v-6h-15v6H119.24z M95.04,75.498v-6h-15v6H95.04z"/>
		<rect x="74.5" y="57.498" fill="#827C7C" width="51" height="5"/>
		<rect x="74.5" y="48.498" fill="#827C7C" width="51" height="6"/>
		<rect x="74.5" y="41.498" fill="#827C7C" width="51" height="5"/>
		<rect x="104.24" y="69.498" width="15" height="6"/>
		<rect x="80.04" y="69.498" width="15" height="6"/>
	</g>
	<g>
		<rect x="13.5" y="30.498" fill="none" stroke="#000000" stroke-miterlimit="10" width="187" height="63"/>
		<polyline fill="none" stroke="#000000" stroke-miterlimit="10" points="74.5,41.498 20.5,41.498 20.5,87.998 125.5,87.797 
			193.5,87.667 193.5,41.498 125.5,41.498 		"/>
		<rect x="74.5" y="65.498" fill="none" stroke="#000000" stroke-miterlimit="10" width="51" height="14"/>
		<rect x="74.5" y="57.498" fill="none" stroke="#000000" stroke-miterlimit="10" width="51" height="5"/>
		<rect x="74.5" y="48.498" fill="none" stroke="#000000" stroke-miterlimit="10" width="51" height="6"/>
		<polyline fill="none" stroke="#000000" stroke-miterlimit="10" points="125.5,41.498 125.5,46.498 74.5,46.498 74.5,41.498 		"/>
		<rect x="74.5" y="82.498" fill="none" stroke="#000000" stroke-miterlimit="10" width="51" height="5"/>
		<rect x="162.42" y="63.998" fill="none" stroke="#000000" stroke-miterlimit="10" width="25" height="20"/>
		<rect x="165.92" y="67.517" fill="none" stroke="#000000" stroke-miterlimit="10" width="18" height="14"/>
		<rect x="133.12" y="63.998" fill="none" stroke="#000000" stroke-miterlimit="10" width="25" height="20"/>
		<rect x="136.62" y="67.517" fill="none" stroke="#020202" stroke-miterlimit="10" width="18" height="14"/>
		
			<rect x="104.24" y="69.498" fill="none" stroke="#000000" stroke-width="0.5" stroke-linecap="round" stroke-linejoin="round" width="15" height="6"/>
		
			<rect x="80.04" y="69.498" fill="none" stroke="#000000" stroke-width="0.5" stroke-linecap="round" stroke-linejoin="round" width="15" height="6"/>
	</g>
</g>
<g display="none">
	<g display="inline">
		<path d="M53.446,29.399c0.784-5.772,2.851-11.348,6.922-15.613c4.498-4.711,13.872-5.77,16.488,1.325
			c3.754,10.179-4.319,23.713-9.287,31.87c-7.317,12.014-16.703,22.917-22.166,35.998c-3.098,7.417-4.559,15.313-6.332,23.123
			c-1.962,8.641-3.83,17.302-5.519,26c-0.258,1.327,0.984,2.291,2.203,1.694c7.324-3.583,14.829-17.788,8.515-25.039
			c-5.511-6.33-20.213-4.913-27.029-1.552c-0.753,0.372-0.902,1.372-0.539,2.052c4.129,7.735,19.623,3.577,26.242,2.438
			c5.009-0.863,9.929-0.935,14.486-3.471c4.556-2.536,6.821-7.667,8.514-12.325C64.964,95.766,63.982,95.633,63,95.5
			c-1.219,12.07-6.285,23.334-7,35.5c1,0,2,0,3,0c-0.479-6.67,3.569-13.272,8.953-16.999c8.158-5.646,5.589,7.562,5.103,11.666
			c-0.331,2.79,0.602,7.841,4.35,4.472c6.087-5.471,7.241-16.638,15.493-19.192c-0.266-0.964-0.532-1.928-0.798-2.893
			C81.104,112.331,82.116,131.748,95.5,130c14.785-1.931,11.322-20.629-1.101-23.446c-0.996-0.226-1.831,0.449-1.899,1.446
			c-1.058,15.479,15.562,9.448,22.061,2.061c-0.854-0.354-1.707-0.707-2.561-1.061c-0.199,6.531-2.275,12.719-3.446,19.101
			c-0.347,1.891,2.543,2.699,2.893,0.798c0.71-3.867,1.468-7.579,3.377-11.065c1.097-2.002,2.844-3.46,4.741-4.644
			c4.107-2.562,4.142,2.975,3.49,5.411c0.964,0,1.928,0,2.893,0c-0.612-3.42,1.042-7.286,5.409-6.627
			c4.858,0.733,3.433,4.447,2.575,6.908c-0.677,1.941-1.035,3.572-0.744,5.605c0.36,2.511,2.903,3.202,4.935,2.375
			c3.347-1.362,6.122-4.564,8.702-6.974c3.277-3.061,7.818-8.354,12.678-8.387c1.953-0.014,1.911-2.869,0-3
			c-9.74-0.669-19.41,12.691-9.847,19.437c9.381,6.618,13.232-10.501,13.347-16.437c0.033-1.675-2.589-2.07-2.946-0.399
			c-1.085,5.071-0.144,17.892,8.22,15.597c4.087-1.121,6.411-3.843,8.299-7.497c2.345-4.538,3.759-9.981,9.927-9.702c0-1,0-2,0-3
			c-4.785,0.29-10.862,2.76-9.91,8.449c0.357,2.134,3.113,3.326,4.746,4.216c2.182,1.19,3.143,3.985,2.696,6.356
			c-0.778,4.13-6.219,2.521-8.633,1.532c-1.791-0.733-2.562,2.17-0.798,2.893c4.488,1.838,12.432,1.745,12.557-4.978
			c0.054-2.866-0.981-5.833-3.249-7.687c-1.177-0.963-2.663-1.443-3.865-2.382c-3.733-2.916,5.128-5.319,6.457-5.4
			c1.926-0.117,1.94-2.912,0-3c-6.441-0.292-9.228,4.183-11.69,9.461c-1.631,3.497-3.54,7.423-7.878,7.893
			c-4.993,0.541-4.585-9.151-3.985-11.955c-0.982-0.133-1.964-0.266-2.946-0.399c-0.087,4.478-1.037,11.692-5.116,14.368
			c-1.75,1.148-3.936-0.6-5.169-1.646c-2.253-1.913-1.146-4.956,0.041-7.028c1.891-3.298,5.903-5.958,9.744-5.694c0-1,0-2,0-3
			c-4.889,0.034-9.021,4.032-12.436,7.087c-2.28,2.04-4.458,4.188-6.768,6.195c-2.415,2.099-5.362,4.084-3.812-1.125
			c1.646-5.533,1.504-10.697-5.555-11.762c-5.961-0.899-8.734,5.699-7.875,10.503c0.27,1.507,2.529,1.361,2.893,0
			c1.271-4.749,0.843-10.717-5.469-9.783c-8.139,1.204-10.734,12.01-11.923,18.485c0.964,0.266,1.928,0.532,2.893,0.798
			c1.221-6.653,3.347-13.092,3.554-19.899c0.039-1.264-1.693-2.047-2.561-1.061C107.846,113.161,94.652,120.4,95.5,108
			c-0.633,0.482-1.266,0.964-1.899,1.446c8.566,1.942,13.287,14.448,2.715,17.378c-10.176,2.82-11.892-12.582-3.417-15.878
			c1.762-0.685,1.086-3.476-0.798-2.893c-8.872,2.745-9.826,12.101-15.277,18.453c-0.642,0.353-0.962,0.87-0.959,1.55
			c-0.057-0.948,0.138-1.999,0.268-2.921c0.247-1.751,0.55-3.493,0.777-5.248c0.361-2.791,0.353-6.078-1.396-8.435
			c-3.044-4.105-8.632-0.601-11.463,1.794C59.054,117.477,55.527,124.401,56,131c0.138,1.926,2.886,1.939,3,0
			c0.714-12.144,5.781-23.429,7-35.5c0.181-1.79-2.406-1.885-2.946-0.399c-1.625,4.472-3.643,8.589-7.938,10.979
			c-3.692,2.054-8.164,1.906-12.201,2.59c-5.066,0.858-20.454,5.004-23.62-0.927c-0.18,0.684-0.359,1.368-0.539,2.052
			c5.75-2.836,14.912-2.814,20.897-0.853c9.663,3.166,0.075,19.58-5.411,22.262c0.734,0.565,1.469,1.129,2.203,1.694
			c3.792-19.535,6.528-40.854,16.584-58.293c8.21-14.238,19.792-26.735,25.245-42.469c2.821-8.139,4.814-21.46-5.697-24.73
			C59.941,3.474,51.922,18.522,50.554,28.601C50.297,30.492,53.187,31.309,53.446,29.399L53.446,29.399z"/>
	</g>
</g>
<path d="M81.238,103.15c0.59-0.736-0.113-1.682-0.113-2.087c0-0.4-4.629,1.169-5.349,1.369c-4.639,1.2-9.558,1.28-14.277,1.96
	c-2.44,0.36-6.999,1-6.999,4.279c0,1.919,1.44,4.239,3,5.279c0.24,0.16,0.52,0.24,0.8,0.24s0.52-0.08,0.52-0.44
	c0-0.6-2.2-2.32-2.2-4.879c0-1.36,3.52-1.879,4.519-2.04c2.52-0.4,5.119-0.52,7.639-0.88c0.16,1.08,0.16,2.16,0.16,3.24
	c0,3.922-0.703,18.672-5.162,21.829c0.094,0.657,0.072,1.332-0.063,1.981c7.852-1.933,9.064-19.064,9.064-25.25
	c0-0.76,0-1.48-0.08-2.24c1.339-0.423,3.81-1.125,5.304-1.369"/>
<path d="M81.259,130.027l-0.04,0.12c-0.44,0.92-1.08,2.24-2.24,2.24c-1.16,0-1.36-1.52-1.36-2.399c0-1.36,0.28-2.76,0.44-4.12
	c0.56-4.439,2.52-30.595,8.438-30.595c1.76,0,2.16,2.439,2.16,3.759c0,5.959-2.04,11.678-4.679,16.917
	c-0.64,1.28-1.36,2.479-2,3.719c-0.32,0.64-1.04,5.479-1.2,6.559c1.479-3.16,6.279-11.958,10.038-11.958c1.8,0,2.28,2.16,2.28,3.599
	l-0.76,10.039c0,0.76,0.04,1.799,1.08,1.799c2.479,0,5.079-3.879,6.479-5.959c0.24-0.36,0.52-0.88,0.959-0.88
	c0.48,0,0.6,0.4,0.6,0.8c0,0.24-0.16,0.44-0.24,0.64c-1.56,3.08-5.559,7.799-9.318,7.799c-2.12,0-2.12-3.719-2.12-5.479
	c0-2.88,0.36-5.759,0.64-8.958c0-0.24,0-0.96-0.4-0.96C88.258,116.709,82.219,127.987,81.259,130.027z M81.739,116.189
	c2.4-4.359,5.439-12.038,5.439-16.997c0-0.36,0-1.88-0.48-1.88C84.219,97.312,81.899,113.47,81.739,116.189z"/>
<path d="M107.418,115.589c2.959,0,3.759,3.079,3.759,5.479c0,3.519-1.24,7.358-4.279,9.398c-0.919,0.6-2,1.04-3.119,1.04
	c-2.88,0-3.839-2.919-3.839-5.319C99.939,122.188,102.659,115.589,107.418,115.589z M102.819,126.268c0,1.279,0.36,3.279,2,3.279
	c0.68,0,1.32-0.36,1.84-0.76c2-1.56,2.839-4.52,2.839-6.959c0-1.32-0.36-3.6-2.08-3.6
	C104.418,118.229,102.819,123.868,102.819,126.268z"/>
<path d="M124.377,121.268v-2.479c0-0.24,0-0.84-0.4-0.84c-1.64,0-7.159,9.958-7.999,11.798c-0.28,0.6-0.68,1.2-1.44,1.2
	c-0.52,0-0.8-0.4-0.8-0.88c0-2.44,2.24-13.998,3.279-15.958c0.56-1.04,2-1.6,3.12-1.6c0.6,0,0.84,0.4,0.84,0.96
	c0,1.12-1,3.119-1.44,4.199c-0.6,1.439-0.96,3-1.2,4.559c0,0,4.319-6.839,6.479-6.839c1.28,0,1.68,1.84,1.68,3l-0.08,5.639
	c0,0-0.04,2.08,0.32,2.08c0.16,0,0.48-0.56,0.56-0.72c0.96-1.6,2.08-3.12,3.16-4.64c1.28-1.799,3.399-5.399,5.879-5.399
	c1.72,0,2.479,1.84,2.479,3.319c0,3.08-0.56,6.159-0.56,9.239c0,0.76,0,2.16,1.08,2.16c1.8,0,4.879-3.36,5.919-4.759
	c0.28-0.36,0.72-1.04,1.24-1.04c0.48,0,0.56,0.48,0.56,0.84c0,0.28-0.24,0.6-0.4,0.8c-1.56,2.16-5.599,6.279-8.399,6.279
	c-2.639,0-2.759-3.439-2.759-5.359c0-2.399,0.36-4.799,0.36-7.239c0-0.44,0-1.64-0.68-1.64c-1.92,0-7.079,9.958-8.279,11.878
	c-0.24,0.4-0.56,0.72-1.08,0.72C124.537,130.546,124.377,124.788,124.377,121.268z"/>
<path d="M163.536,125.907c-1.479,2.08-4.399,5.719-7.199,5.719c-2.64,0-2.959-4.319-2.959-6.199c-1.04,1.64-3.479,5.279-5.599,5.279
	c-1.959,0-2.399-2.64-2.399-4.159c0-4.199,4.359-11.518,9.039-11.518c0.56,0,1.32,0.68,1.32,1.24c0,0.24-0.2,0.36-0.4,0.48
	c-1.44,0.84-2.76,1.76-3.919,2.959c-2.08,2.12-3.399,4.839-3.399,7.838c0,0.32,0.04,0.96,0.52,0.96c1.799,0,5.159-7.079,5.919-8.718
	c0.28-0.6,0.6-1.2,1.36-1.2c0.4,0,0.919,0.12,0.919,0.64c0,0.56-0.52,1.72-0.72,2.32c-0.44,1.359-0.6,3.039-0.6,4.439
	c0,0.84,0.04,3.919,1.28,3.919c1.88,0,4.879-3.959,5.959-5.399c0,0,0.56-1,1.12-1c0.48,0,0.64,0.32,0.64,0.76
	C164.416,124.748,163.816,125.507,163.536,125.907z"/>
<path d="M172.377,127.227c0,1.08-0.28,2.16-0.92,3.08c1.84,0,5.599-4.119,6.639-5.679c0.24-0.36,0.6-0.88,1.04-0.88
	c0.48,0,0.6,0.4,0.6,0.8c0,0.28-0.24,0.6-0.36,0.84c-3,4.719-6.439,7.479-12.238,7.479c-1.52,0-3.559-0.2-4.719-1.32
	c-0.24-0.24-0.44-0.52-0.44-0.88c0-0.4,0.28-0.6,0.64-0.6c0.32,0,0.8,0.36,0.72,0.28c0.84,0.64,1.8,0.76,2.84,0.76
	c2.12,0,3.239-1.439,3.239-3.479c0-2.399-1.479-5.799-2.799-7.759c-0.76,2.16-2.32,5.439-3.919,7.039
	c-0.24,0.24-0.64,0.64-1.04,0.64c-0.32,0-0.56-0.24-0.56-0.56c0-0.4,0.24-0.72,0.48-1.04c1.799-2.239,3.199-4.879,4.079-7.639
	c-0.24-0.68-0.36-1.4-0.36-2.12c0-1.56,1.04-4.679,2.959-4.679c1,0,1.28,1.36,1.28,2.16c0,1.32-0.44,2.72-0.92,3.959
	C169.897,120.708,172.377,123.788,172.377,127.227z"/>
<g>
	<g>
		<path d="M105.427,116.97c-1.249,2.66,0,5.192,2.909,5.662c3.855,0.623,7.794-2.986,10.115-5.681
			c0.878-1.021-0.6-2.513-1.485-1.485c-1.243,1.444-2.707,2.577-4.241,3.696c-1.073,0.784-2.02,1.345-3.39,1.443
			c-1.623,0.116-2.854-0.96-2.095-2.576C107.812,116.812,106.002,115.745,105.427,116.97L105.427,116.97z"/>
	</g>
</g>
<g>
	<g>
		<path d="M53.183,29.824c1.479-6.564,11.018-10.408,15.467-3.883c2.771,4.064,2.143,11.677,2.413,16.429
			c0.721,12.678-2.051,26.144-10.192,36.165c-6.197,7.628-12.636,12.833-14.216,23.083c-1.433,9.293,1.825,18.867,6.824,26.589
			c0.733,1.132,2.552,0.081,1.813-1.06c-8.396-12.972-9.589-28.621,1.067-40.591c3.848-4.322,7.704-8.187,10.571-13.27
			c3.103-5.5,4.745-11.758,5.677-17.957c0.964-6.411,0.568-12.806,0.109-19.234c-0.268-3.753-0.205-9.639-3.142-12.489
			c-2.913-2.827-6.515-3.318-10.403-2.651c-4.798,0.823-7.035,3.968-8.014,8.311C50.86,30.584,52.885,31.145,53.183,29.824
			L53.183,29.824z"/>
	</g>
</g>
<g>
	<g>
		<path d="M78.766,103.016c0.553-0.038,1.039-0.135,1.518-0.426c0.412-0.251,0.036-0.9-0.379-0.647
			c-0.367,0.224-0.714,0.295-1.139,0.324C78.286,102.298,78.283,103.048,78.766,103.016L78.766,103.016z"/>
	</g>
</g>
<g>
	<g>
		<path d="M79.779,102.083c-0.243,0.136-0.502,0.233-0.75,0.359c-0.431,0.219-0.051,0.867,0.379,0.647
			c0.248-0.126,0.507-0.224,0.75-0.359C80.58,102.494,80.202,101.846,79.779,102.083L79.779,102.083z"/>
	</g>
</g>
<g>
	<g>
		<path d="M154.199,116.879c0.287-0.09,0.559-0.215,0.845-0.308c0.236-0.076,0.303,0.556,0.307,0.661
			c0.027,0.681-0.229,1.429-0.499,2.045c-0.384,0.877,0.908,1.641,1.295,0.757c0.477-1.087,0.914-2.378,0.595-3.568
			c-0.146-0.548-0.567-1.066-1.094-1.278c-0.668-0.269-1.216,0.046-1.848,0.245C152.881,115.721,153.274,117.169,154.199,116.879
			L154.199,116.879z"/>
	</g>
</g>
<g>
	<g>
		<path d="M153.969,117c0.412-0.006,0.996,0.017,1.152,0.48c0.16,0.476,0.032,1.17-0.237,1.579c-0.534,0.81,0.765,1.561,1.295,0.757
			c0.524-0.794,0.638-1.994,0.336-2.889c-0.359-1.065-1.523-1.442-2.546-1.427C153.002,115.515,153.001,117.015,153.969,117
			L153.969,117z"/>
	</g>
</g>
<g>
	<g>
		<path d="M155.491,116.347c0.163-0.379,0.163-0.597,0-0.976c-0.161-0.376-0.707-0.457-1.026-0.269
			c-0.385,0.225-0.43,0.65-0.269,1.026c0.016,0.037,0.031,0.073,0.047,0.109c0-0.252,0-0.504,0-0.757
			c-0.016,0.036-0.031,0.073-0.047,0.109c-0.161,0.375-0.116,0.801,0.269,1.026C154.785,116.804,155.33,116.723,155.491,116.347
			L155.491,116.347z"/>
	</g>
</g>
<g>
	<g>
		<path d="M156.567,119.512c-0.002,0.006-0.003,0.013-0.005,0.019c0.635-0.724-0.421-1.789-1.061-1.061
			c-0.178,0.203-0.289,0.39-0.38,0.644C154.792,120.025,156.242,120.415,156.567,119.512L156.567,119.512z"/>
	</g>
</g>
<g>
	<g>
		<path d="M155.875,119.5c0.031,0,0.062,0,0.094,0c0.967,0,0.967-1.5,0-1.5c-0.031,0-0.062,0-0.094,0
			C154.908,118,154.908,119.5,155.875,119.5L155.875,119.5z"/>
	</g>
</g>
<g>
	<g>
		<path d="M155.707,119.317c0.031,0.005,0.062,0.01,0.094,0.016c-0.184-0.241-0.367-0.482-0.551-0.723c0,0.037,0,0.073,0,0.109
			c0,0.967,1.5,0.967,1.5,0c0-0.037,0-0.073,0-0.109c0-0.307-0.226-0.669-0.551-0.723c-0.031-0.005-0.062-0.01-0.094-0.016
			C155.16,117.713,154.754,119.158,155.707,119.317L155.707,119.317z"/>
	</g>
</g>
<g>
	<g>
		<path d="M156.437,119.062c0.367-0.314,0.412-0.763,0.407-1.218c-0.01-0.967-1.51-0.968-1.5,0c0,0.043,0.001,0.086,0.001,0.129
			c-0.014,0.167-0.004,0.176,0.031,0.028C154.64,118.631,155.706,119.687,156.437,119.062L156.437,119.062z"/>
	</g>
</g>
<g>
	<g>
		<path d="M156.504,119.355c0.059-0.154,0.038-0.172-0.063-0.052c0.813-0.518,0.061-1.817-0.757-1.295
			c-0.35,0.223-0.544,0.543-0.626,0.948C154.867,119.901,156.313,120.303,156.504,119.355L156.504,119.355z"/>
	</g>
</g>
<g>
	<g>
		<path d="M156.067,119.918c0.302-0.854,0.653-1.767,0.406-2.68c-0.252-0.933-1.7-0.537-1.446,0.398
			c0.163,0.601-0.209,1.326-0.406,1.883C154.297,120.434,155.747,120.823,156.067,119.918L156.067,119.918z"/>
	</g>
</g>
<g>
	<g>
		<path d="M155.02,115.652c-0.007,0.001-0.013,0.003-0.02,0.004c-0.965,0.031-0.968,1.531,0,1.5c0.143-0.004,0.28-0.02,0.418-0.058
			C156.348,116.838,155.953,115.391,155.02,115.652L155.02,115.652z"/>
	</g>
</g>
<g>
	<g>
		<path d="M154.246,116.207c-0.01,0.031-0.021,0.062-0.031,0.094c-0.307,0.92,1.142,1.312,1.446,0.398
			c0.01-0.031,0.021-0.062,0.031-0.094C155.999,115.686,154.55,115.294,154.246,116.207L154.246,116.207z"/>
	</g>
</g>
<g>
	<g>
		<path d="M156.375,118.906c-0.014-0.894,0.244-2.003-0.714-2.545c-0.979-0.554-2.137-0.224-3.071,0.272
			c-0.854,0.454-0.097,1.749,0.757,1.295c0.327-0.173,1.151-0.587,1.51-0.308c0.224,0.174,0.014,1.026,0.018,1.285
			C154.89,119.873,156.39,119.874,156.375,118.906L156.375,118.906z"/>
	</g>
</g>
<g>
	<g>
		<path d="M53.686,128.439c1.579,1.304,2.223,3.171,4.197,4.111c1.826,0.869,4.328,0.894,6.251,0.39
			c1.215-0.318,0.699-2.199-0.519-1.88c-1.905,0.499-4.426,0.351-5.97-0.959c-1.031-0.875-1.543-2.183-2.581-3.041
			C54.103,126.266,52.715,127.638,53.686,128.439L53.686,128.439z"/>
	</g>
</g>
<g>
	<g>
		<path d="M81.273,102.904c1.123-0.765,2.267-1.495,3.229-2.465c0.886-0.894-0.493-2.273-1.379-1.379
			c-0.847,0.854-1.845,1.486-2.834,2.16C79.257,101.924,80.231,103.615,81.273,102.904L81.273,102.904z"/>
	</g>
</g>
<g>
	<g>
		<path d="M81.398,102.748c0.185-0.116,0.286-0.239,0.412-0.412c0.313-0.431,0.074-1.085-0.35-1.334
			c-0.493-0.289-1.022-0.079-1.334,0.35c-0.011,0.015-0.021,0.029-0.031,0.043c0.117-0.117,0.233-0.233,0.35-0.35
			c-0.01,0.006-0.021,0.013-0.031,0.02C79.351,101.729,80.329,103.417,81.398,102.748L81.398,102.748z"/>
	</g>
</g>
<g>
	<g>
		<path d="M81.616,101.123c-0.031,0.01-0.062,0.021-0.094,0.031c-1.187,0.396-0.678,2.279,0.519,1.88
			c0.031-0.01,0.062-0.021,0.094-0.031C83.321,102.607,82.812,100.724,81.616,101.123L81.616,101.123z"/>
	</g>
</g>
<g>
	<g>
		<path d="M80.969,103.194c1.257,0,1.257-1.95,0-1.95S79.711,103.194,80.969,103.194L80.969,103.194z"/>
	</g>
</g>
<g>
	<g>
		<path d="M81.125,103.131c1.257,0,1.257-1.95,0-1.95S79.868,103.131,81.125,103.131L81.125,103.131z"/>
	</g>
</g>
<polygon fill="#A59F9F" stroke="#0C0B0B" stroke-miterlimit="10" points="60.5,58.5 52.5,58.5 52.5,50.5 41.5,50.5 41.5,58.5 
	32.5,58.5 32.5,69.5 41.5,69.5 41.5,78.5 52.5,78.5 52.5,69.5 60.5,69.5 "/>
<rect x="44" y="53" fill="#0C0B0B" width="6" height="23"/>
<rect x="35" y="61" fill="#0C0B0B" width="23" height="6"/>
</svg>
