<?xml version="1.0" encoding="utf-8"?>
<!-- Generator: Adobe Illustrator 16.0.0, SVG Export Plug-In . SVG Version: 6.00 Build 0)  -->
<!DOCTYPE svg PUBLIC "-//W3C//DTD SVG 1.1//EN" "http://www.w3.org/Graphics/SVG/1.1/DTD/svg11.dtd">
<svg version="1.1" id="Layer_1" xmlns="http://www.w3.org/2000/svg" xmlns:xlink="http://www.w3.org/1999/xlink" x="0px" y="0px"
	 width="216.5px" height="148px" viewBox="0 0 216.5 148" enable-background="new 0 0 216.5 148" xml:space="preserve">
<g id="XMLID_1_">
	<g>
		<path fill="#A59F9F" d="M200.5,30.498v63h-187v-63H200.5z M193.5,87.667v-46.17h-68h-51h-54v46.5l105-0.2L193.5,87.667z"/>
		<path fill="#5B5757" d="M193.5,41.498v46.17l-68,0.13v-0.3v-5v-3v-14v-3v-5v-3v-6v-2v-5H193.5z M186.5,82.498v-20h-25v20H186.5z
			 M157.5,82.498v-20h-25v20H157.5z"/>
		<path fill="#A59F9F" d="M186.5,62.498v20h-25v-20H186.5z M183.5,79.498v-14h-18v14H183.5z"/>
		<rect x="165.5" y="65.498" fill="#C61E1E" width="18" height="14"/>
		<path fill="#A59F9F" d="M157.5,62.498v20h-25v-20H157.5z M154.5,79.498v-14h-18v14H154.5z"/>
		<rect x="136.5" y="65.498" fill="#C61E1E" width="18" height="14"/>
		<path fill="#5B5757" d="M125.5,87.498v0.3l-105,0.2v-46.5h54v5h51v2h-51v6h51v3h-51v5h51v3h-51v14h51v3h-51v5H125.5z M63.5,68.498
			v-10h-11v-9h-14v8h-11v10.71l11.44,0.1l0.06,8.19h14.08l-0.08-8H63.5z"/>
		<rect x="74.5" y="82.498" fill="#827C7C" width="51" height="5"/>
		<path fill="#A59F9F" d="M125.5,65.498v14h-51v-14H125.5z M118.5,76.498v-6h-15v6H118.5z M96.5,76.498v-6h-15v6H96.5z"/>
		<rect x="74.5" y="57.498" fill="#827C7C" width="51" height="5"/>
		<rect x="74.5" y="48.498" fill="#827C7C" width="51" height="6"/>
		<rect x="74.5" y="41.498" fill="#827C7C" width="51" height="5"/>
		<rect x="103.5" y="70.498" width="15" height="6"/>
		<rect x="81.5" y="70.498" width="15" height="6"/>
		<path fill="#A59F9F" d="M63.5,58.498v10H53l0.08,8H39l-0.06-8.19l-11.44-0.1v-10.71h11v-8h14v9H63.5z M60.5,65.498v-5h-7v5H60.5z
			 M49.5,74.498v-6h-7v6H49.5z M49.5,65.498v-5h-7v5H49.5z M49.5,57.498v-6h-7v6H49.5z M38.5,65.498v-5h-7v5H38.5z"/>
		<rect x="53.5" y="60.498" fill="#827E7E" width="7" height="5"/>
		<rect x="42.5" y="68.498" fill="#827E7E" width="7" height="6"/>
		<rect x="42.5" y="60.498" fill="#939090" width="7" height="5"/>
		<rect x="42.5" y="51.498" fill="#827E7E" width="7" height="6"/>
		<rect x="31.5" y="60.498" fill="#827E7E" width="7" height="5"/>
	</g>
	<g>
		<rect x="13.5" y="30.498" fill="none" stroke="#000000" stroke-miterlimit="10" width="187" height="63"/>
		<polyline fill="none" stroke="#000000" stroke-miterlimit="10" points="74.5,41.498 20.5,41.498 20.5,87.998 125.5,87.797 
			193.5,87.667 193.5,41.498 125.5,41.498 		"/>
		<rect x="74.5" y="65.498" fill="none" stroke="#000000" stroke-miterlimit="10" width="51" height="14"/>
		<rect x="74.5" y="57.498" fill="none" stroke="#000000" stroke-miterlimit="10" width="51" height="5"/>
		<rect x="74.5" y="48.498" fill="none" stroke="#000000" stroke-miterlimit="10" width="51" height="6"/>
		<polyline fill="none" stroke="#000000" stroke-miterlimit="10" points="125.5,41.498 125.5,46.498 74.5,46.498 74.5,41.498 		"/>
		<rect x="81.5" y="70.498" fill="none" stroke="#000000" stroke-miterlimit="10" width="15" height="6"/>
		<rect x="103.5" y="70.498" fill="none" stroke="#000000" stroke-miterlimit="10" width="15" height="6"/>
		<rect x="31.5" y="60.498" fill="none" stroke="#000000" stroke-miterlimit="10" width="7" height="5"/>
		<rect x="42.5" y="60.498" fill="none" stroke="#000000" stroke-miterlimit="10" width="7" height="5"/>
		<rect x="53.5" y="60.498" fill="none" stroke="#000000" stroke-miterlimit="10" width="7" height="5"/>
		<rect x="42.5" y="51.498" fill="none" stroke="#000000" stroke-miterlimit="10" width="7" height="6"/>
		<rect x="42.5" y="68.498" fill="none" stroke="#000000" stroke-miterlimit="10" width="7" height="6"/>
		<rect x="74.5" y="82.498" fill="none" stroke="#000000" stroke-miterlimit="10" width="51" height="5"/>
		<rect x="132.5" y="62.498" fill="none" stroke="#000000" stroke-miterlimit="10" width="25" height="20"/>
		<rect x="161.5" y="62.498" fill="none" stroke="#000000" stroke-miterlimit="10" width="25" height="20"/>
		<rect x="165.5" y="65.498" fill="none" stroke="#000000" stroke-miterlimit="10" width="18" height="14"/>
		<rect x="136.5" y="65.498" fill="none" stroke="#000000" stroke-miterlimit="10" width="18" height="14"/>
		<polygon fill="none" stroke="#000000" stroke-miterlimit="10" points="27.5,57.498 38.5,57.498 38.5,49.498 52.5,49.498 
			52.5,58.498 63.5,58.498 63.5,68.498 53,68.498 53.08,76.498 39,76.498 38.94,68.307 27.5,68.208 		"/>
	</g>
</g>
<g display="none">
	<g display="inline">
		<path d="M53.446,29.399c0.784-5.772,2.851-11.348,6.922-15.613c4.498-4.711,13.872-5.77,16.488,1.325
			c3.754,10.179-4.319,23.713-9.287,31.87c-7.317,12.014-16.703,22.917-22.166,35.998c-3.098,7.417-4.559,15.313-6.332,23.123
			c-1.962,8.641-3.83,17.302-5.519,26c-0.258,1.327,0.984,2.291,2.203,1.694c7.324-3.583,14.829-17.788,8.515-25.039
			c-5.511-6.33-20.213-4.913-27.029-1.552c-0.753,0.372-0.902,1.372-0.539,2.052c4.129,7.735,19.623,3.577,26.242,2.438
			c5.009-0.863,9.929-0.935,14.486-3.471c4.556-2.536,6.821-7.667,8.514-12.325C64.964,95.766,63.982,95.633,63,95.5
			c-1.219,12.07-6.285,23.334-7,35.5c1,0,2,0,3,0c-0.479-6.67,3.569-13.272,8.953-16.999c8.158-5.646,5.589,7.562,5.103,11.666
			c-0.331,2.79,0.602,7.841,4.35,4.472c6.087-5.471,7.241-16.638,15.493-19.192c-0.266-0.964-0.532-1.928-0.798-2.893
			C81.104,112.331,82.116,131.748,95.5,130c14.785-1.931,11.322-20.629-1.101-23.446c-0.996-0.226-1.831,0.449-1.899,1.446
			c-1.058,15.479,15.562,9.448,22.061,2.061c-0.854-0.354-1.707-0.707-2.561-1.061c-0.199,6.531-2.275,12.719-3.446,19.101
			c-0.347,1.891,2.543,2.699,2.893,0.798c0.71-3.867,1.468-7.579,3.377-11.065c1.097-2.002,2.844-3.46,4.741-4.644
			c4.107-2.562,4.142,2.975,3.49,5.411c0.964,0,1.928,0,2.893,0c-0.612-3.42,1.042-7.286,5.409-6.627
			c4.858,0.733,3.433,4.447,2.575,6.908c-0.677,1.941-1.035,3.572-0.744,5.605c0.36,2.511,2.903,3.202,4.935,2.375
			c3.347-1.362,6.122-4.564,8.702-6.974c3.277-3.061,7.818-8.354,12.678-8.387c1.953-0.014,1.911-2.869,0-3
			c-9.74-0.669-19.41,12.691-9.847,19.437c9.381,6.618,13.232-10.501,13.347-16.437c0.033-1.675-2.589-2.07-2.946-0.399
			c-1.085,5.071-0.144,17.892,8.22,15.597c4.087-1.121,6.411-3.843,8.299-7.497c2.345-4.538,3.759-9.981,9.927-9.702c0-1,0-2,0-3
			c-4.785,0.29-10.862,2.76-9.91,8.449c0.357,2.134,3.113,3.326,4.746,4.216c2.182,1.19,3.143,3.985,2.696,6.356
			c-0.778,4.13-6.219,2.521-8.633,1.532c-1.791-0.733-2.562,2.17-0.798,2.893c4.488,1.838,12.432,1.745,12.557-4.978
			c0.054-2.866-0.981-5.833-3.249-7.687c-1.177-0.963-2.663-1.443-3.865-2.382c-3.733-2.916,5.128-5.319,6.457-5.4
			c1.926-0.117,1.94-2.912,0-3c-6.441-0.292-9.228,4.183-11.69,9.461c-1.631,3.497-3.54,7.423-7.878,7.893
			c-4.993,0.541-4.585-9.151-3.985-11.955c-0.982-0.133-1.964-0.266-2.946-0.399c-0.087,4.478-1.037,11.692-5.116,14.368
			c-1.75,1.148-3.936-0.6-5.169-1.646c-2.253-1.913-1.146-4.956,0.041-7.028c1.891-3.298,5.903-5.958,9.744-5.694c0-1,0-2,0-3
			c-4.889,0.034-9.021,4.032-12.436,7.087c-2.28,2.04-4.458,4.188-6.768,6.195c-2.415,2.099-5.362,4.084-3.812-1.125
			c1.646-5.533,1.504-10.697-5.555-11.762c-5.961-0.899-8.734,5.699-7.875,10.503c0.27,1.507,2.529,1.361,2.893,0
			c1.271-4.749,0.843-10.717-5.469-9.783c-8.139,1.204-10.734,12.01-11.923,18.485c0.964,0.266,1.928,0.532,2.893,0.798
			c1.221-6.653,3.347-13.092,3.554-19.899c0.039-1.264-1.693-2.047-2.561-1.061C107.846,113.161,94.652,120.4,95.5,108
			c-0.633,0.482-1.266,0.964-1.899,1.446c8.566,1.942,13.287,14.448,2.715,17.378c-10.176,2.82-11.892-12.582-3.417-15.878
			c1.762-0.685,1.086-3.476-0.798-2.893c-8.872,2.745-9.826,12.101-15.277,18.453c-0.642,0.353-0.962,0.87-0.959,1.55
			c-0.057-0.948,0.138-1.999,0.268-2.921c0.247-1.751,0.55-3.493,0.777-5.248c0.361-2.791,0.353-6.078-1.396-8.435
			c-3.044-4.105-8.632-0.601-11.463,1.794C59.054,117.477,55.527,124.401,56,131c0.138,1.926,2.886,1.939,3,0
			c0.714-12.144,5.781-23.429,7-35.5c0.181-1.79-2.406-1.885-2.946-0.399c-1.625,4.472-3.643,8.589-7.938,10.979
			c-3.692,2.054-8.164,1.906-12.201,2.59c-5.066,0.858-20.454,5.004-23.62-0.927c-0.18,0.684-0.359,1.368-0.539,2.052
			c5.75-2.836,14.912-2.814,20.897-0.853c9.663,3.166,0.075,19.58-5.411,22.262c0.734,0.565,1.469,1.129,2.203,1.694
			c3.792-19.535,6.528-40.854,16.584-58.293c8.21-14.238,19.792-26.735,25.245-42.469c2.821-8.139,4.814-21.46-5.697-24.73
			C59.941,3.474,51.922,18.522,50.554,28.601C50.297,30.492,53.187,31.309,53.446,29.399L53.446,29.399z"/>
	</g>
</g>
<path d="M79.125,101.062c0-0.4-1.829,0.489-2.429,0.489c-0.6,0-2.2,0.68-2.919,0.88c-4.639,1.2-9.558,1.28-14.277,1.96
	c-2.44,0.36-6.999,1-6.999,4.279c0,1.919,1.44,4.239,3,5.279c0.24,0.16,0.52,0.24,0.8,0.24s0.52-0.08,0.52-0.44
	c0-0.6-2.2-2.32-2.2-4.879c0-1.36,3.52-1.879,4.519-2.04c2.52-0.4,5.119-0.52,7.639-0.88c0.16,1.08,0.16,2.16,0.16,3.24
	c0,4.399-0.88,22.436-6.959,22.436c-2.239,0-2.839-2.28-3.839-2.28c-0.28,0-0.479,0.2-0.6,0.44c0.035,0.555,0.341,1.015,0.682,1.415
	c0.793,0.225,1.446,0.63,1.958,1.154c0.444,0.193,0.84,0.441,1.177,0.746c0.277,0.042,0.553,0.084,0.861,0.084
	c9.198,0,10.558-18.876,10.558-25.436c0-0.76,0-1.48-0.08-2.24c1.52-0.48,4.5-1.321,5.839-1.439
	C80.875,103.688,79.125,101.702,79.125,101.062z"/>
<path d="M79.259,130.027l-0.04,0.12c-0.44,0.92-1.08,2.24-2.24,2.24c-1.16,0-1.36-1.52-1.36-2.399c0-1.36,0.28-2.76,0.44-4.12
	c0.56-4.439,2.52-30.595,8.438-30.595c1.76,0,2.16,2.439,2.16,3.759c0,5.959-2.04,11.678-4.679,16.917
	c-0.64,1.28-1.36,2.479-2,3.719c-0.32,0.64-1.04,5.479-1.2,6.559c1.479-3.16,6.279-11.958,10.038-11.958c1.8,0,2.28,2.16,2.28,3.599
	l-0.76,10.039c0,0.76,0.04,1.799,1.08,1.799c2.479,0,5.079-3.879,6.479-5.959c0.24-0.36,0.52-0.88,0.959-0.88
	c0.48,0,0.6,0.4,0.6,0.8c0,0.24-0.16,0.44-0.24,0.64c-1.56,3.08-5.559,7.799-9.318,7.799c-2.12,0-2.12-3.719-2.12-5.479
	c0-2.88,0.36-5.759,0.64-8.958c0-0.24,0-0.96-0.4-0.96C86.258,116.709,80.219,127.987,79.259,130.027z M79.739,116.189
	c2.4-4.359,5.439-12.038,5.439-16.997c0-0.36,0-1.88-0.48-1.88C82.219,97.312,79.899,113.47,79.739,116.189z"/>
<path d="M105.418,115.589c2.959,0,3.759,3.079,3.759,5.479c0,3.519-1.24,7.358-4.279,9.398c-0.919,0.6-2,1.04-3.119,1.04
	c-2.88,0-3.839-2.919-3.839-5.319C97.939,122.188,100.659,115.589,105.418,115.589z M100.819,126.268c0,1.279,0.36,3.279,2,3.279
	c0.68,0,1.32-0.36,1.84-0.76c2-1.56,2.839-4.52,2.839-6.959c0-1.32-0.36-3.6-2.08-3.6
	C102.418,118.229,100.819,123.868,100.819,126.268z"/>
<path d="M122.377,121.268v-2.479c0-0.24,0-0.84-0.4-0.84c-1.64,0-7.159,9.958-7.999,11.798c-0.28,0.6-0.68,1.2-1.44,1.2
	c-0.52,0-0.8-0.4-0.8-0.88c0-2.44,2.24-13.998,3.279-15.958c0.56-1.04,2-1.6,3.12-1.6c0.6,0,0.84,0.4,0.84,0.96
	c0,1.12-1,3.119-1.44,4.199c-0.6,1.439-0.96,3-1.2,4.559c0,0,4.319-6.839,6.479-6.839c1.28,0,1.68,1.84,1.68,3l-0.08,5.639
	c0,0-0.04,2.08,0.32,2.08c0.16,0,0.48-0.56,0.56-0.72c0.96-1.6,2.08-3.12,3.16-4.64c1.28-1.799,3.399-5.399,5.879-5.399
	c1.72,0,2.479,1.84,2.479,3.319c0,3.08-0.56,6.159-0.56,9.239c0,0.76,0,2.16,1.08,2.16c1.8,0,4.879-3.36,5.919-4.759
	c0.28-0.36,0.72-1.04,1.24-1.04c0.48,0,0.56,0.48,0.56,0.84c0,0.28-0.24,0.6-0.4,0.8c-1.56,2.16-5.599,6.279-8.399,6.279
	c-2.639,0-2.759-3.439-2.759-5.359c0-2.399,0.36-4.799,0.36-7.239c0-0.44,0-1.64-0.68-1.64c-1.92,0-7.079,9.958-8.279,11.878
	c-0.24,0.4-0.56,0.72-1.08,0.72C122.537,130.546,122.377,124.788,122.377,121.268z"/>
<path d="M161.536,125.907c-1.479,2.08-4.399,5.719-7.199,5.719c-2.64,0-2.959-4.319-2.959-6.199c-1.04,1.64-3.479,5.279-5.599,5.279
	c-1.959,0-2.399-2.64-2.399-4.159c0-4.199,4.359-11.518,9.039-11.518c0.56,0,1.32,0.68,1.32,1.24c0,0.24-0.2,0.36-0.4,0.48
	c-1.44,0.84-2.76,1.76-3.919,2.959c-2.08,2.12-3.399,4.839-3.399,7.838c0,0.32,0.04,0.96,0.52,0.96c1.799,0,5.159-7.079,5.919-8.718
	c0.28-0.6,0.6-1.2,1.36-1.2c0.4,0,0.919,0.12,0.919,0.64c0,0.56-0.52,1.72-0.72,2.32c-0.44,1.359-0.6,3.039-0.6,4.439
	c0,0.84,0.04,3.919,1.28,3.919c1.88,0,4.879-3.959,5.959-5.399c0,0,0.56-1,1.12-1c0.48,0,0.64,0.32,0.64,0.76
	C162.416,124.748,161.816,125.507,161.536,125.907z"/>
<path d="M170.377,127.227c0,1.08-0.28,2.16-0.92,3.08c1.84,0,5.599-4.119,6.639-5.679c0.24-0.36,0.6-0.88,1.04-0.88
	c0.48,0,0.6,0.4,0.6,0.8c0,0.28-0.24,0.6-0.36,0.84c-3,4.719-6.439,7.479-12.238,7.479c-1.52,0-3.559-0.2-4.719-1.32
	c-0.24-0.24-0.44-0.52-0.44-0.88c0-0.4,0.28-0.6,0.64-0.6c0.32,0,0.8,0.36,0.72,0.28c0.84,0.64,1.8,0.76,2.84,0.76
	c2.12,0,3.239-1.439,3.239-3.479c0-2.399-1.479-5.799-2.799-7.759c-0.76,2.16-2.32,5.439-3.919,7.039
	c-0.24,0.24-0.64,0.64-1.04,0.64c-0.32,0-0.56-0.24-0.56-0.56c0-0.4,0.24-0.72,0.48-1.04c1.799-2.239,3.199-4.879,4.079-7.639
	c-0.24-0.68-0.36-1.4-0.36-2.12c0-1.56,1.04-4.679,2.959-4.679c1,0,1.28,1.36,1.28,2.16c0,1.32-0.44,2.72-0.92,3.959
	C167.897,120.708,170.377,123.788,170.377,127.227z"/>
<g>
	<g>
		<path d="M103.427,116.97c-1.249,2.66,0,5.192,2.909,5.662c3.855,0.623,7.794-2.986,10.115-5.681
			c0.878-1.021-0.6-2.513-1.485-1.485c-1.243,1.444-2.707,2.577-4.241,3.696c-1.073,0.784-2.02,1.345-3.39,1.443
			c-1.623,0.116-2.854-0.96-2.095-2.576C105.812,116.812,104.002,115.745,103.427,116.97L103.427,116.97z"/>
	</g>
</g>
<g>
	<g>
		<path d="M75.938,103.862c2.764,0.025,5.022-1.89,6.743-3.87c0.883-1.018-0.596-2.509-1.485-1.485
			c-1.338,1.541-3.074,3.275-5.257,3.255C74.583,101.75,74.584,103.85,75.938,103.862L75.938,103.862z"/>
	</g>
</g>
<g>
	<g>
		<path d="M80.033,100.675c-0.725,0.188-1.5,0.463-2.026,1.02c-0.928,0.984,0.554,2.472,1.485,1.485
			c0.244-0.259,0.716-0.381,1.099-0.48C81.901,102.359,81.345,100.334,80.033,100.675L80.033,100.675z"/>
	</g>
</g>
<g>
	<g>
		<path d="M53.763,30.029c0.486-2.851,1.544-4.572,4.138-6.012C62.416,21.512,69.25,22.949,69.95,29
			c0.694,5.999,1.768,11.747,1.77,17.824c0.002,12.514-3.757,24.821-12.172,34.235c-3.413,3.819-6.966,6.708-9.429,11.306
			c-2.2,4.107-3.024,8.803-3.159,13.411c-0.282,9.655,3.986,19.19,10.04,26.499c0.865,1.043,2.342-0.451,1.485-1.485
			c-8.816-10.643-12.696-25.899-5.908-38.569c3-5.6,8.63-9.376,12.34-14.512c3.733-5.169,6.013-11.304,7.444-17.468
			c1.356-5.84,1.602-11.919,1.371-17.887c-0.217-5.595-0.436-12.974-3.091-17.962c-1.679-3.153-6.925-4.044-10.067-3.39
			c-2.13,0.444-4.312,1.168-5.98,2.639c-2.375,2.094-2.342,2.817-2.856,5.829C51.511,30.795,53.535,31.362,53.763,30.029
			L53.763,30.029z"/>
	</g>
</g>
<g>
	<g>
		<path d="M60.25,132.35c-0.608-0.017-1.202-0.164-1.812-0.125c-0.11,0.007-0.191,0.123-0.129,0.226
			c0.264,0.436,0.691,0.614,1.192,0.574c0.191-0.015,0.193-0.315,0-0.3c-0.394,0.031-0.721-0.076-0.933-0.426
			c-0.043,0.075-0.086,0.15-0.129,0.226c0.61-0.038,1.204,0.108,1.812,0.125C60.443,132.655,60.443,132.355,60.25,132.35
			L60.25,132.35z"/>
	</g>
</g>
<g>
	<g>
		<path d="M59.085,132.668c-0.475,0.09-0.884-0.166-1.259-0.422c-0.16-0.11-0.31,0.15-0.151,0.259
			c0.456,0.312,0.927,0.56,1.491,0.453C59.355,132.921,59.274,132.632,59.085,132.668L59.085,132.668z"/>
	</g>
</g>
<g>
	<g>
		<path d="M57.924,132.317c0.188,0.125,0.375,0.25,0.562,0.375c0.162,0.108,0.312-0.152,0.151-0.259
			c-0.188-0.125-0.375-0.25-0.562-0.375C57.914,131.95,57.764,132.21,57.924,132.317L57.924,132.317z"/>
	</g>
</g>
<g>
	<g>
		<path d="M59.168,131.832c-0.17-0.182-0.298-0.376-0.414-0.595c-0.056,0.073-0.113,0.147-0.169,0.22
			c0.23,0.082,0.435,0.176,0.622,0.336c0.146,0.125,0.359-0.086,0.212-0.212c-0.225-0.193-0.476-0.315-0.753-0.414
			c-0.132-0.047-0.227,0.112-0.169,0.22c0.129,0.244,0.272,0.454,0.461,0.655C59.089,132.185,59.3,131.973,59.168,131.832
			L59.168,131.832z"/>
	</g>
</g>
<g>
	<g>
		<path d="M58.918,131.394c-0.029-0.062-0.058-0.123-0.086-0.184c-0.033-0.19-0.322-0.109-0.289,0.08
			c0.023,0.137,0.07,0.215,0.164,0.316C58.838,131.748,59.05,131.536,58.918,131.394L58.918,131.394z"/>
	</g>
</g>
<g>
	<g>
		<path d="M57.355,132.228c0.33,0.815,1.193,0.723,1.917,0.917c0.188,0.05,0.267-0.239,0.08-0.289
			c-0.566-0.152-1.446-0.06-1.708-0.708C57.573,131.971,57.283,132.048,57.355,132.228L57.355,132.228z"/>
	</g>
</g>
<g>
	<g>
		<path d="M57.319,132.188c0.055,0.419,0.334,0.615,0.744,0.65c0.193,0.017,0.191-0.284,0-0.3c-0.263,0.003-0.411-0.114-0.444-0.35
			C57.594,131.999,57.294,131.996,57.319,132.188L57.319,132.188z"/>
	</g>
</g>
<g>
	<g>
		<path d="M57.3,132.418c0.029,0.051,0.058,0.102,0.086,0.153c0.059,0.183,0.349,0.104,0.289-0.08
			c-0.047-0.146-0.062-0.169-0.164-0.285C57.384,132.061,57.173,132.274,57.3,132.418L57.3,132.418z"/>
	</g>
</g>
<g>
	<g>
		<path d="M57.656,132.744c0.193,0,0.193-0.3,0-0.3S57.463,132.744,57.656,132.744L57.656,132.744z"/>
	</g>
</g>
<g>
	<g>
		<path d="M58.562,131.337c0.193,0,0.193-0.3,0-0.3S58.369,131.337,58.562,131.337L58.562,131.337z"/>
	</g>
</g>
<g>
	<g>
		<path d="M58.562,131.275c0.193,0,0.193-0.3,0-0.3S58.369,131.275,58.562,131.275L58.562,131.275z"/>
	</g>
</g>
<g>
	<g>
		<path d="M59.469,133.181c0.193,0,0.193-0.3,0-0.3S59.275,133.181,59.469,133.181L59.469,133.181z"/>
	</g>
</g>
</svg>
